<mxfile host="app.diagrams.net" modified="2023-12-08T13:39:44.806Z" agent="Mozilla/5.0 (Windows NT 10.0; Win64; x64) AppleWebKit/537.36 (KHTML, like Gecko) Chrome/119.0.0.0 Safari/537.36" version="22.1.7" etag="vtl457VxbjKcc8opQWty" type="github">
  <diagram name="페이지-1" id="9gZhMaADPe0vdr4Xzyia">
    <mxGraphModel>
      <root>
        <mxCell id="0" />
        <mxCell id="1" parent="0" />
      </root>
    </mxGraphModel>
  </diagram>
</mxfile>
